<svg xmlns="http://www.w3.org/2000/svg" width="80" height="80" viewBox="0 0 80 80"><g transform="scale(1.204) translate(-27.4, -28)"><path fill="#0096de" d="M93.79 61.72a33.18 33.18 0 11-33.18-33.18 33.18 33.18 0 0133.18 33.18"></path><path fill="#ffffff" d="M65.73 42.52h-3.17l-7.49 12.86 3.17 1.84 5.9-10.14 12 20.59 3.17-1.84-13.58-23.31zM47.78 71.44h33.46v3.66H47.78z"></path><path fill="#ffffff" d="M65.23 58.12a10.28 10.28 0 01-15.35.43h-3.26l-.14.23L38 73.25l3.16 1.85 6.14-10.51 1.31-2.24a13.92 13.92 0 0019.32-1.78z"></path></g></svg>